<?xml version="1.0" encoding="utf-8"?>
<!-- Generator: Adobe Illustrator 21.0.2, SVG Export Plug-In . SVG Version: 6.00 Build 0)  -->
<svg version="1.1" id="Layer_1" xmlns="http://www.w3.org/2000/svg" xmlns:xlink="http://www.w3.org/1999/xlink" x="0px" y="0px"
	 viewBox="0 0 36 36" style="enable-background:new 0 0 36 36;" xml:space="preserve">
<style type="text/css">
	.st0{fill:#757575;}
</style>
<g>
	<path class="st0" d="M18,18.6c4.6,0,8.3-4.2,8.3-9.3C26.3,4.1,22.6,0,18,0S9.7,4.2,9.7,9.3C9.7,14.4,13.4,18.6,18,18.6z"/>
	<path class="st0" d="M25.8,18.6L25,18.5L24.5,19c-1.7,1.9-4,2.9-6.5,2.9c-2.4,0-4.7-1-6.5-2.9L11,18.5l-0.7,0.1C4.5,19,0,24.5,0,31
		v5h36v-5C36,24.5,31.6,19.1,25.8,18.6z"/>
</g>
</svg>
